<mxfile host="app.diagrams.net" modified="2024-06-07T02:17:58.328Z" agent="Mozilla/5.0 (Windows NT 10.0; Win64; x64) AppleWebKit/537.36 (KHTML, like Gecko) Chrome/124.0.0.0 Safari/537.36 OPR/110.0.0.0" etag="9yi5iHCsx4b-OpU4Jkgy" version="24.4.11" type="device">
  <diagram name="Page-1" id="qgAVH23V26UUPj7tpYNk">
    <mxGraphModel dx="456" dy="283" grid="1" gridSize="10" guides="1" tooltips="1" connect="1" arrows="1" fold="1" page="1" pageScale="1" pageWidth="1169" pageHeight="827" math="0" shadow="0">
      <root>
        <mxCell id="0" />
        <mxCell id="1" parent="0" />
        <mxCell id="QgSftCh5XIYS-amaaID1-12" style="edgeStyle=orthogonalEdgeStyle;rounded=0;orthogonalLoop=1;jettySize=auto;html=1;exitX=1;exitY=0.5;exitDx=0;exitDy=0;" edge="1" parent="1" source="QgSftCh5XIYS-amaaID1-2" target="QgSftCh5XIYS-amaaID1-6">
          <mxGeometry relative="1" as="geometry" />
        </mxCell>
        <mxCell id="QgSftCh5XIYS-amaaID1-13" style="edgeStyle=orthogonalEdgeStyle;rounded=0;orthogonalLoop=1;jettySize=auto;html=1;exitX=1;exitY=0.25;exitDx=0;exitDy=0;entryX=0;entryY=0.5;entryDx=0;entryDy=0;" edge="1" parent="1" source="QgSftCh5XIYS-amaaID1-2" target="QgSftCh5XIYS-amaaID1-5">
          <mxGeometry relative="1" as="geometry">
            <Array as="points">
              <mxPoint x="210" y="399" />
              <mxPoint x="210" y="260" />
            </Array>
          </mxGeometry>
        </mxCell>
        <mxCell id="QgSftCh5XIYS-amaaID1-14" style="edgeStyle=orthogonalEdgeStyle;rounded=0;orthogonalLoop=1;jettySize=auto;html=1;exitX=1;exitY=0.25;exitDx=0;exitDy=0;entryX=0;entryY=0.5;entryDx=0;entryDy=0;" edge="1" parent="1" source="QgSftCh5XIYS-amaaID1-2" target="QgSftCh5XIYS-amaaID1-7">
          <mxGeometry relative="1" as="geometry">
            <Array as="points">
              <mxPoint x="160" y="390" />
              <mxPoint x="190" y="390" />
              <mxPoint x="190" y="150" />
            </Array>
          </mxGeometry>
        </mxCell>
        <mxCell id="QgSftCh5XIYS-amaaID1-16" style="edgeStyle=orthogonalEdgeStyle;rounded=0;orthogonalLoop=1;jettySize=auto;html=1;exitX=1;exitY=0.75;exitDx=0;exitDy=0;entryX=0;entryY=0.5;entryDx=0;entryDy=0;" edge="1" parent="1" source="QgSftCh5XIYS-amaaID1-2" target="QgSftCh5XIYS-amaaID1-9">
          <mxGeometry relative="1" as="geometry">
            <Array as="points">
              <mxPoint x="160" y="440" />
              <mxPoint x="190" y="440" />
              <mxPoint x="190" y="770" />
            </Array>
          </mxGeometry>
        </mxCell>
        <mxCell id="QgSftCh5XIYS-amaaID1-69" style="edgeStyle=orthogonalEdgeStyle;rounded=0;orthogonalLoop=1;jettySize=auto;html=1;exitX=1;exitY=1;exitDx=0;exitDy=0;entryX=0;entryY=0.5;entryDx=0;entryDy=0;" edge="1" parent="1" source="QgSftCh5XIYS-amaaID1-2" target="QgSftCh5XIYS-amaaID1-68">
          <mxGeometry relative="1" as="geometry">
            <Array as="points">
              <mxPoint x="200" y="444" />
              <mxPoint x="200" y="669" />
            </Array>
          </mxGeometry>
        </mxCell>
        <mxCell id="QgSftCh5XIYS-amaaID1-2" value="Person" style="rounded=0;whiteSpace=wrap;html=1;fontSize=18;labelBackgroundColor=none;" vertex="1" parent="1">
          <mxGeometry x="40" y="384" width="120" height="60" as="geometry" />
        </mxCell>
        <mxCell id="QgSftCh5XIYS-amaaID1-29" style="edgeStyle=orthogonalEdgeStyle;rounded=0;orthogonalLoop=1;jettySize=auto;html=1;exitX=1;exitY=0.5;exitDx=0;exitDy=0;" edge="1" parent="1" source="QgSftCh5XIYS-amaaID1-3" target="QgSftCh5XIYS-amaaID1-21">
          <mxGeometry relative="1" as="geometry" />
        </mxCell>
        <mxCell id="QgSftCh5XIYS-amaaID1-53" value="&lt;font style=&quot;font-size: 15px;&quot;&gt;Yes&lt;/font&gt;" style="edgeLabel;html=1;align=center;verticalAlign=middle;resizable=0;points=[];" vertex="1" connectable="0" parent="QgSftCh5XIYS-amaaID1-29">
          <mxGeometry x="-0.2699" y="-3" relative="1" as="geometry">
            <mxPoint as="offset" />
          </mxGeometry>
        </mxCell>
        <mxCell id="QgSftCh5XIYS-amaaID1-3" value="is weekday?" style="rounded=1;whiteSpace=wrap;html=1;arcSize=48;labelBackgroundColor=none;fontSize=18;" vertex="1" parent="1">
          <mxGeometry x="430" y="280" width="120" height="60" as="geometry" />
        </mxCell>
        <mxCell id="QgSftCh5XIYS-amaaID1-25" style="edgeStyle=orthogonalEdgeStyle;rounded=0;orthogonalLoop=1;jettySize=auto;html=1;exitX=1;exitY=0.5;exitDx=0;exitDy=0;entryX=0;entryY=0.5;entryDx=0;entryDy=0;" edge="1" parent="1" source="QgSftCh5XIYS-amaaID1-5" target="QgSftCh5XIYS-amaaID1-3">
          <mxGeometry relative="1" as="geometry">
            <Array as="points">
              <mxPoint x="400" y="260" />
              <mxPoint x="400" y="310" />
            </Array>
          </mxGeometry>
        </mxCell>
        <mxCell id="QgSftCh5XIYS-amaaID1-31" style="edgeStyle=orthogonalEdgeStyle;rounded=0;orthogonalLoop=1;jettySize=auto;html=1;exitX=1;exitY=0.5;exitDx=0;exitDy=0;entryX=0;entryY=0.5;entryDx=0;entryDy=0;" edge="1" parent="1" source="QgSftCh5XIYS-amaaID1-5" target="QgSftCh5XIYS-amaaID1-30">
          <mxGeometry relative="1" as="geometry">
            <Array as="points">
              <mxPoint x="400" y="260" />
              <mxPoint x="400" y="230" />
            </Array>
          </mxGeometry>
        </mxCell>
        <mxCell id="QgSftCh5XIYS-amaaID1-32" value="&lt;font style=&quot;font-size: 15px;&quot;&gt;Yes&lt;/font&gt;" style="edgeLabel;html=1;align=center;verticalAlign=middle;resizable=0;points=[];" vertex="1" connectable="0" parent="QgSftCh5XIYS-amaaID1-31">
          <mxGeometry x="-0.5914" y="-2" relative="1" as="geometry">
            <mxPoint as="offset" />
          </mxGeometry>
        </mxCell>
        <mxCell id="QgSftCh5XIYS-amaaID1-5" value="age &amp;lt; 12" style="rounded=1;whiteSpace=wrap;html=1;arcSize=48;labelBackgroundColor=none;fontSize=18;" vertex="1" parent="1">
          <mxGeometry x="240" y="230" width="120" height="60" as="geometry" />
        </mxCell>
        <mxCell id="QgSftCh5XIYS-amaaID1-65" style="edgeStyle=orthogonalEdgeStyle;rounded=0;orthogonalLoop=1;jettySize=auto;html=1;exitX=1;exitY=0.5;exitDx=0;exitDy=0;" edge="1" parent="1" source="QgSftCh5XIYS-amaaID1-6" target="QgSftCh5XIYS-amaaID1-62">
          <mxGeometry relative="1" as="geometry" />
        </mxCell>
        <mxCell id="QgSftCh5XIYS-amaaID1-66" value="&lt;font style=&quot;font-size: 15px;&quot;&gt;Yes&lt;/font&gt;" style="edgeLabel;html=1;align=center;verticalAlign=middle;resizable=0;points=[];" vertex="1" connectable="0" parent="QgSftCh5XIYS-amaaID1-65">
          <mxGeometry x="-0.3" y="1" relative="1" as="geometry">
            <mxPoint as="offset" />
          </mxGeometry>
        </mxCell>
        <mxCell id="QgSftCh5XIYS-amaaID1-6" value="age &amp;lt; 16" style="rounded=1;whiteSpace=wrap;html=1;arcSize=48;labelBackgroundColor=none;fontSize=18;" vertex="1" parent="1">
          <mxGeometry x="240" y="384" width="120" height="60" as="geometry" />
        </mxCell>
        <mxCell id="QgSftCh5XIYS-amaaID1-17" style="edgeStyle=orthogonalEdgeStyle;rounded=0;orthogonalLoop=1;jettySize=auto;html=1;exitX=1;exitY=0.5;exitDx=0;exitDy=0;fontSize=18;" edge="1" parent="1" source="QgSftCh5XIYS-amaaID1-7" target="QgSftCh5XIYS-amaaID1-10">
          <mxGeometry relative="1" as="geometry" />
        </mxCell>
        <mxCell id="QgSftCh5XIYS-amaaID1-24" value="Yes" style="edgeLabel;html=1;align=center;verticalAlign=middle;resizable=0;points=[];" vertex="1" connectable="0" parent="QgSftCh5XIYS-amaaID1-17">
          <mxGeometry x="-0.4978" y="2" relative="1" as="geometry">
            <mxPoint as="offset" />
          </mxGeometry>
        </mxCell>
        <mxCell id="QgSftCh5XIYS-amaaID1-27" value="&lt;font style=&quot;font-size: 15px;&quot;&gt;Yes&lt;/font&gt;" style="edgeLabel;html=1;align=center;verticalAlign=middle;resizable=0;points=[];" vertex="1" connectable="0" parent="QgSftCh5XIYS-amaaID1-17">
          <mxGeometry x="-0.4831" y="2" relative="1" as="geometry">
            <mxPoint as="offset" />
          </mxGeometry>
        </mxCell>
        <mxCell id="QgSftCh5XIYS-amaaID1-7" value="age &amp;lt; 3" style="rounded=1;whiteSpace=wrap;html=1;arcSize=48;labelBackgroundColor=none;fontSize=18;" vertex="1" parent="1">
          <mxGeometry x="240" y="120" width="120" height="60" as="geometry" />
        </mxCell>
        <mxCell id="QgSftCh5XIYS-amaaID1-45" style="edgeStyle=orthogonalEdgeStyle;rounded=0;orthogonalLoop=1;jettySize=auto;html=1;exitX=1;exitY=0.5;exitDx=0;exitDy=0;entryX=0;entryY=0.5;entryDx=0;entryDy=0;" edge="1" parent="1" source="QgSftCh5XIYS-amaaID1-8" target="QgSftCh5XIYS-amaaID1-35">
          <mxGeometry relative="1" as="geometry" />
        </mxCell>
        <mxCell id="QgSftCh5XIYS-amaaID1-54" value="&lt;font style=&quot;font-size: 15px;&quot;&gt;Yes&lt;/font&gt;" style="edgeLabel;html=1;align=center;verticalAlign=middle;resizable=0;points=[];" vertex="1" connectable="0" parent="QgSftCh5XIYS-amaaID1-45">
          <mxGeometry x="-0.2871" y="-1" relative="1" as="geometry">
            <mxPoint as="offset" />
          </mxGeometry>
        </mxCell>
        <mxCell id="QgSftCh5XIYS-amaaID1-8" value="age &amp;gt;= 16 and age &amp;lt;= 18" style="rounded=1;whiteSpace=wrap;html=1;arcSize=48;labelBackgroundColor=none;fontSize=18;" vertex="1" parent="1">
          <mxGeometry x="240" y="520" width="120" height="60" as="geometry" />
        </mxCell>
        <mxCell id="QgSftCh5XIYS-amaaID1-18" style="edgeStyle=orthogonalEdgeStyle;rounded=0;orthogonalLoop=1;jettySize=auto;html=1;exitX=1;exitY=0.5;exitDx=0;exitDy=0;" edge="1" parent="1" source="QgSftCh5XIYS-amaaID1-9" target="QgSftCh5XIYS-amaaID1-11">
          <mxGeometry relative="1" as="geometry" />
        </mxCell>
        <mxCell id="QgSftCh5XIYS-amaaID1-61" value="&lt;font style=&quot;font-size: 15px;&quot;&gt;Yes&lt;/font&gt;" style="edgeLabel;html=1;align=center;verticalAlign=middle;resizable=0;points=[];" vertex="1" connectable="0" parent="QgSftCh5XIYS-amaaID1-18">
          <mxGeometry x="-0.5" y="-1" relative="1" as="geometry">
            <mxPoint as="offset" />
          </mxGeometry>
        </mxCell>
        <mxCell id="QgSftCh5XIYS-amaaID1-9" value="age &amp;gt; 18" style="rounded=1;whiteSpace=wrap;html=1;arcSize=48;labelBackgroundColor=none;fontSize=18;" vertex="1" parent="1">
          <mxGeometry x="240" y="740" width="120" height="60" as="geometry" />
        </mxCell>
        <mxCell id="QgSftCh5XIYS-amaaID1-10" value="&lt;font style=&quot;font-size: 18px;&quot;&gt;No Admission Fee&lt;/font&gt;" style="rounded=0;whiteSpace=wrap;html=1;" vertex="1" parent="1">
          <mxGeometry x="520" y="120" width="120" height="60" as="geometry" />
        </mxCell>
        <mxCell id="QgSftCh5XIYS-amaaID1-11" value="&lt;font style=&quot;font-size: 18px;&quot;&gt;Full Admission Fee&lt;/font&gt;" style="rounded=0;whiteSpace=wrap;html=1;" vertex="1" parent="1">
          <mxGeometry x="520" y="740" width="120" height="60" as="geometry" />
        </mxCell>
        <mxCell id="QgSftCh5XIYS-amaaID1-15" style="edgeStyle=orthogonalEdgeStyle;rounded=0;orthogonalLoop=1;jettySize=auto;html=1;exitX=1;exitY=0.75;exitDx=0;exitDy=0;entryX=-0.004;entryY=0.522;entryDx=0;entryDy=0;entryPerimeter=0;" edge="1" parent="1" source="QgSftCh5XIYS-amaaID1-2" target="QgSftCh5XIYS-amaaID1-8">
          <mxGeometry relative="1" as="geometry">
            <Array as="points">
              <mxPoint x="210" y="429" />
              <mxPoint x="210" y="551" />
            </Array>
          </mxGeometry>
        </mxCell>
        <mxCell id="QgSftCh5XIYS-amaaID1-20" value="&lt;font style=&quot;font-size: 18px;&quot;&gt;Quarter Admission Fee&lt;/font&gt;" style="rounded=0;whiteSpace=wrap;html=1;" vertex="1" parent="1">
          <mxGeometry x="652" y="200" width="120" height="60" as="geometry" />
        </mxCell>
        <mxCell id="QgSftCh5XIYS-amaaID1-21" value="&lt;font style=&quot;font-size: 18px;&quot;&gt;1 Free Ride&lt;/font&gt;" style="rounded=0;whiteSpace=wrap;html=1;" vertex="1" parent="1">
          <mxGeometry x="652" y="280" width="120" height="60" as="geometry" />
        </mxCell>
        <mxCell id="QgSftCh5XIYS-amaaID1-33" style="edgeStyle=orthogonalEdgeStyle;rounded=0;orthogonalLoop=1;jettySize=auto;html=1;exitX=1;exitY=0.5;exitDx=0;exitDy=0;" edge="1" parent="1" source="QgSftCh5XIYS-amaaID1-30" target="QgSftCh5XIYS-amaaID1-20">
          <mxGeometry relative="1" as="geometry" />
        </mxCell>
        <mxCell id="QgSftCh5XIYS-amaaID1-52" value="&lt;font style=&quot;font-size: 15px;&quot;&gt;Yes&lt;/font&gt;" style="edgeLabel;html=1;align=center;verticalAlign=middle;resizable=0;points=[];" vertex="1" connectable="0" parent="QgSftCh5XIYS-amaaID1-33">
          <mxGeometry x="-0.3622" y="-2" relative="1" as="geometry">
            <mxPoint as="offset" />
          </mxGeometry>
        </mxCell>
        <mxCell id="QgSftCh5XIYS-amaaID1-30" value="Accompanied by Adult?" style="rounded=1;whiteSpace=wrap;html=1;arcSize=48;labelBackgroundColor=none;fontSize=18;" vertex="1" parent="1">
          <mxGeometry x="430" y="200" width="120" height="60" as="geometry" />
        </mxCell>
        <mxCell id="QgSftCh5XIYS-amaaID1-50" style="edgeStyle=orthogonalEdgeStyle;rounded=0;orthogonalLoop=1;jettySize=auto;html=1;exitX=1;exitY=0.75;exitDx=0;exitDy=0;entryX=0;entryY=0.5;entryDx=0;entryDy=0;" edge="1" parent="1" source="QgSftCh5XIYS-amaaID1-35" target="QgSftCh5XIYS-amaaID1-40">
          <mxGeometry relative="1" as="geometry" />
        </mxCell>
        <mxCell id="QgSftCh5XIYS-amaaID1-58" value="&lt;font style=&quot;font-size: 15px;&quot;&gt;Yes&lt;/font&gt;" style="edgeLabel;html=1;align=center;verticalAlign=middle;resizable=0;points=[];" vertex="1" connectable="0" parent="QgSftCh5XIYS-amaaID1-50">
          <mxGeometry x="-0.6634" relative="1" as="geometry">
            <mxPoint as="offset" />
          </mxGeometry>
        </mxCell>
        <mxCell id="QgSftCh5XIYS-amaaID1-51" style="edgeStyle=orthogonalEdgeStyle;rounded=0;orthogonalLoop=1;jettySize=auto;html=1;exitX=1;exitY=0.25;exitDx=0;exitDy=0;entryX=0;entryY=0.5;entryDx=0;entryDy=0;" edge="1" parent="1" source="QgSftCh5XIYS-amaaID1-35" target="QgSftCh5XIYS-amaaID1-46">
          <mxGeometry relative="1" as="geometry" />
        </mxCell>
        <mxCell id="QgSftCh5XIYS-amaaID1-59" value="&lt;font style=&quot;font-size: 15px;&quot;&gt;No&lt;/font&gt;" style="edgeLabel;html=1;align=center;verticalAlign=middle;resizable=0;points=[];" vertex="1" connectable="0" parent="QgSftCh5XIYS-amaaID1-51">
          <mxGeometry x="-0.6309" y="1" relative="1" as="geometry">
            <mxPoint as="offset" />
          </mxGeometry>
        </mxCell>
        <mxCell id="QgSftCh5XIYS-amaaID1-35" value="is weekend?" style="rounded=1;whiteSpace=wrap;html=1;arcSize=48;labelBackgroundColor=none;fontSize=18;" vertex="1" parent="1">
          <mxGeometry x="425" y="520" width="120" height="60" as="geometry" />
        </mxCell>
        <mxCell id="QgSftCh5XIYS-amaaID1-40" value="&lt;font style=&quot;font-size: 18px;&quot;&gt;No Student Concession&lt;/font&gt;" style="rounded=0;whiteSpace=wrap;html=1;" vertex="1" parent="1">
          <mxGeometry x="652" y="587" width="120" height="60" as="geometry" />
        </mxCell>
        <mxCell id="QgSftCh5XIYS-amaaID1-42" value="&lt;font style=&quot;font-size: 18px;&quot;&gt;Half Admission Fee&lt;/font&gt;" style="rounded=0;whiteSpace=wrap;html=1;" vertex="1" parent="1">
          <mxGeometry x="880" y="467" width="120" height="60" as="geometry" />
        </mxCell>
        <mxCell id="QgSftCh5XIYS-amaaID1-48" style="edgeStyle=orthogonalEdgeStyle;rounded=0;orthogonalLoop=1;jettySize=auto;html=1;exitX=1;exitY=0.5;exitDx=0;exitDy=0;entryX=0;entryY=0.5;entryDx=0;entryDy=0;" edge="1" parent="1" source="QgSftCh5XIYS-amaaID1-46" target="QgSftCh5XIYS-amaaID1-42">
          <mxGeometry relative="1" as="geometry" />
        </mxCell>
        <mxCell id="QgSftCh5XIYS-amaaID1-60" value="&lt;font style=&quot;font-size: 15px;&quot;&gt;Yes&lt;/font&gt;" style="edgeLabel;html=1;align=center;verticalAlign=middle;resizable=0;points=[];" vertex="1" connectable="0" parent="QgSftCh5XIYS-amaaID1-48">
          <mxGeometry x="-0.3166" y="1" relative="1" as="geometry">
            <mxPoint as="offset" />
          </mxGeometry>
        </mxCell>
        <mxCell id="QgSftCh5XIYS-amaaID1-46" value="is student&lt;span style=&quot;background-color: initial;&quot;&gt;?&lt;/span&gt;" style="rounded=1;whiteSpace=wrap;html=1;arcSize=48;labelBackgroundColor=none;fontSize=18;" vertex="1" parent="1">
          <mxGeometry x="652" y="467" width="120" height="60" as="geometry" />
        </mxCell>
        <mxCell id="QgSftCh5XIYS-amaaID1-62" value="&lt;font style=&quot;font-size: 18px;&quot;&gt;Half Admission Fee&lt;/font&gt;" style="rounded=0;whiteSpace=wrap;html=1;" vertex="1" parent="1">
          <mxGeometry x="440" y="384" width="120" height="60" as="geometry" />
        </mxCell>
        <mxCell id="QgSftCh5XIYS-amaaID1-71" style="edgeStyle=orthogonalEdgeStyle;rounded=0;orthogonalLoop=1;jettySize=auto;html=1;exitX=1;exitY=0.5;exitDx=0;exitDy=0;" edge="1" parent="1" source="QgSftCh5XIYS-amaaID1-63" target="QgSftCh5XIYS-amaaID1-64">
          <mxGeometry relative="1" as="geometry" />
        </mxCell>
        <mxCell id="QgSftCh5XIYS-amaaID1-74" value="Text" style="edgeLabel;html=1;align=center;verticalAlign=middle;resizable=0;points=[];" vertex="1" connectable="0" parent="QgSftCh5XIYS-amaaID1-71">
          <mxGeometry x="-0.5917" relative="1" as="geometry">
            <mxPoint as="offset" />
          </mxGeometry>
        </mxCell>
        <mxCell id="QgSftCh5XIYS-amaaID1-63" value="in group of 10 or more?" style="rounded=1;whiteSpace=wrap;html=1;arcSize=48;labelBackgroundColor=none;fontSize=18;" vertex="1" parent="1">
          <mxGeometry x="420" y="639" width="120" height="60" as="geometry" />
        </mxCell>
        <mxCell id="QgSftCh5XIYS-amaaID1-64" value="&lt;font style=&quot;font-size: 18px;&quot;&gt;10% Discount&lt;/font&gt;" style="rounded=0;whiteSpace=wrap;html=1;" vertex="1" parent="1">
          <mxGeometry x="611" y="664" width="120" height="60" as="geometry" />
        </mxCell>
        <mxCell id="QgSftCh5XIYS-amaaID1-70" style="edgeStyle=orthogonalEdgeStyle;rounded=0;orthogonalLoop=1;jettySize=auto;html=1;exitX=1;exitY=0.5;exitDx=0;exitDy=0;entryX=0;entryY=0.5;entryDx=0;entryDy=0;" edge="1" parent="1" source="QgSftCh5XIYS-amaaID1-68" target="QgSftCh5XIYS-amaaID1-63">
          <mxGeometry relative="1" as="geometry" />
        </mxCell>
        <mxCell id="QgSftCh5XIYS-amaaID1-72" value="&lt;font style=&quot;font-size: 15px;&quot;&gt;Yes&lt;/font&gt;" style="edgeLabel;html=1;align=center;verticalAlign=middle;resizable=0;points=[];" vertex="1" connectable="0" parent="QgSftCh5XIYS-amaaID1-70">
          <mxGeometry x="-0.3333" y="2" relative="1" as="geometry">
            <mxPoint as="offset" />
          </mxGeometry>
        </mxCell>
        <mxCell id="QgSftCh5XIYS-amaaID1-68" value="age over 16" style="rounded=1;whiteSpace=wrap;html=1;arcSize=48;labelBackgroundColor=none;fontSize=18;" vertex="1" parent="1">
          <mxGeometry x="240" y="639" width="120" height="60" as="geometry" />
        </mxCell>
      </root>
    </mxGraphModel>
  </diagram>
</mxfile>
